PathFileType	3	(X/Y/Z)	C:\Users\dbak576\Desktop\Duncan Bakke Modelling Files\Output\AB08\_12Mar_ss_12ms_01\AB08_12Mar_ss_12ms_01.trc
DataRate	CameraRate	NumFrames	NumMarkers	Units	OrigDataRate	OrigDataStartFrame	OrigNumFrames
200.0	200.0	8	42	mm	200.0	4955	3036	
Frame#	Time	LASI			RASI			LPSI			RPSI			LTH1			LTH2			LTH3			LTH4			LMFC			LLFC			LTB1			LTB2			LTB3			LTB4			LMMAL			LLMAL			LCAL			LToe			LMT1			LMT5			RTH1			RTH2			RTH3			RTH4			RMFC			RLFC			RTB1			RTB2			RTB3			RTB4			RMMAL			RLMAL			RCAL			RToe			RMT1			RMT5			C7			T10			LACR1			RACR1			CLAV			RBack			
		X1	Y1	Z1	X2	Y2	Z2	X3	Y3	Z3	X4	Y4	Z4	X5	Y5	Z5	X6	Y6	Z6	X7	Y7	Z7	X8	Y8	Z8	X9	Y9	Z9	X10	Y10	Z10	X11	Y11	Z11	X12	Y12	Z12	X13	Y13	Z13	X14	Y14	Z14	X15	Y15	Z15	X16	Y16	Z16	X17	Y17	Z17	X18	Y18	Z18	X19	Y19	Z19	X20	Y20	Z20	X21	Y21	Z21	X22	Y22	Z22	X23	Y23	Z23	X24	Y24	Z24	X25	Y25	Z25	X26	Y26	Z26	X27	Y27	Z27	X28	Y28	Z28	X29	Y29	Z29	X30	Y30	Z30	X31	Y31	Z31	X32	Y32	Z32	X33	Y33	Z33	X34	Y34	Z34	X35	Y35	Z35	X36	Y36	Z36	X37	Y37	Z37	X38	Y38	Z38	X39	Y39	Z39	X40	Y40	Z40	X41	Y41	Z41	X42	Y42	Z42	
4955	24.765	406.96094	961.07715	-896.19525	663.93542	966.1864	-882.34076	466.52658	987.82562	-672.47369	587.90686	989.74292	-663.03101	398.07419	726.27606	-1005.2242	382.3916	689.53955	-1003.9506	426.72339	641.18817	-1012.0214	414.41898	680.5127	-1010.7863	483.27298	528.97235	-983.8288	351.55646	537.29431	-976.95538	319.26416	441.70898	-985.46045	317.23297	358.18747	-997.79358	339.07623	367.75922	-1046.4	333.10495	404.41266	-1029.5311	422.02588	146.63248	-1077.7388	332.32434	137.31975	-1066.3285	374.26779	50.106956	-1014.6551	415.65872	144.83612	-1297.9082	435.79938	110.44177	-1214.476	318.73013	99.095955	-1209.5859	645.51221	674.49786	-851.26776	629.42743	615.30579	-824.99951	666.78027	600.92236	-778.646	679.3761	652.35699	-804.81488	529.47375	499.96039	-733.65417	653.16327	516.46497	-696.46973	657.383	400.09064	-685.18231	644.59174	362.5473	-690.27771	632.43536	313.45605	-685.79175	659.79639	322.96823	-639.94971	537.19519	127.63689	-611.91406	620.21124	117.04076	-570.37274	565.18951	64.320061	-498.72583	598.19421	35.960106	-800.82953	554.71442	38.574341	-711.23297	673.79761	43.261765	-675.35339	495.78055	1490.0066	-745.46832	515.39984	1239.3505	-673.67084	326.76947	1441.3917	-796.73328	651.11121	1472.194	-811.60608	491.8634	1415.3274	-895.68384	635.1452	1395.1702	-699.31195
4956	24.77	406.3374	959.53601	-896.58264	663.50354	964.69757	-882.28931	465.79935	986.289	-672.5437	587.34741	988.12555	-663.1543	398.76791	723.63495	-1003.7292	383.01038	686.86334	-1002.4128	427.35416	638.56262	-1010.6102	415.02475	677.85474	-1009.1039	484.29462	526.71454	-982.26801	352.25058	535.28601	-975.52692	320.18356	440.66119	-986.24036	318.05981	357.35223	-1000.3827	339.58218	367.99811	-1048.4646	333.72537	404.35727	-1031.2723	422.43192	147.97311	-1086.58	332.93942	137.85521	-1074.4323	375.48245	49.637634	-1025.4977	413.56757	151.49167	-1306.7084	435.02362	115.12347	-1224.3715	317.77832	103.33141	-1218.7068	643.80066	672.9447	-848.92645	628.51538	614.40729	-822.82019	666.5675	600.42944	-776.64325	678.38367	651.22308	-802.99225	529.00952	499.28253	-730.4129	652.76306	516.07886	-693.65155	657.17255	399.78522	-681.41174	644.31451	362.12408	-686.229	632.27045	312.86407	-681.18921	659.56635	322.8992	-635.45166	537.16803	127.73278	-606.27008	620.21216	117.49005	-564.63995	565.25018	64.685837	-492.71133	598.1571	35.56572	-794.54767	554.85876	38.461941	-705.14935	673.91486	43.338802	-669.32233	495.15598	1488.5934	-745.46515	514.97656	1238.035	-673.57397	326.10751	1439.9204	-796.5578	650.39966	1470.8438	-811.8476	491.10486	1413.8693	-895.73529	634.6076	1393.6652	-699.42529
4957	24.775	405.64026	957.96167	-897.03992	662.93597	963.07941	-882.24438	465.10434	984.68036	-672.52979	586.4917	986.31036	-664.12775	399.25064	721.13647	-1002.1635	383.63324	684.28607	-1000.8715	428.13919	636.16028	-1009.3887	415.6525	675.46588	-1007.8849	485.92813	524.70923	-980.88861	353.01398	533.34296	-974.25391	321.15274	439.4935	-986.80707	318.82199	356.66724	-1002.9763	340.0119	368.55722	-1051.3268	334.37762	404.28253	-1032.6317	422.89963	149.54166	-1094.9403	333.47766	138.91557	-1082.4531	376.7326	49.429996	-1035.7284	411.7691	157.85686	-1314.8679	434.1629	119.64453	-1233.5347	316.98611	107.2612	-1227.1115	642.56152	671.74744	-847.00812	627.28876	613.27997	-820.62262	665.21289	599.26068	-774.61584	677.32935	650.10187	-801.25372	528.59271	498.59656	-727.33472	652.39764	515.57617	-690.91443	656.86865	399.37143	-677.76575	644.22504	361.78232	-682.31635	632.33313	312.73862	-677.23236	659.47742	322.88605	-631.49536	537.22815	127.82402	-600.83582	620.06519	117.87757	-558.86108	565.16412	65.060165	-486.7598	598.15668	35.739971	-788.80408	554.98511	38.359394	-699.05865	674.0014	43.291908	-663.21997	494.52344	1487.1312	-745.50183	514.49976	1236.6565	-673.57092	325.47134	1438.4561	-796.41852	649.67908	1469.4406	-812.00775	490.26114	1412.3473	-895.86938	634.07306	1392.248	-699.59961
4958	24.78	405.23065	956.63129	-897.22498	662.27032	961.56824	-882.37482	464.28873	983.04694	-672.63416	585.79315	984.60693	-664.17059	399.41068	718.82416	-1000.6198	384.03342	682.00659	-999.61371	428.46793	633.88666	-1008.3074	416.05441	673.20435	-1006.6291	487.26501	523.12256	-979.67352	353.77795	531.57605	-973.21753	322.02014	438.53952	-987.37732	319.6084	355.91791	-1005.3738	340.54361	368.87186	-1053.4313	335.09845	404.22076	-1034.0562	423.45486	151.11182	-1102.66	334.18549	139.55359	-1089.3062	378.25748	49.397552	-1045.1052	409.92484	163.85252	-1322.2927	433.28412	124.04654	-1242.067	316.23227	111.0259	-1234.6519	642.26648	671.026	-846.01978	626.20416	612.29816	-818.57318	664.39063	598.37512	-772.70471	676.69769	649.26508	-799.81586	528.09344	497.95953	-724.41333	651.98615	515.07465	-688.31378	656.5705	398.95166	-674.33362	643.84186	361.17856	-678.61926	632.15338	312.18729	-673.05219	659.31439	322.85794	-627.54663	537.03198	127.95048	-595.14294	620.03931	118.28529	-553.16772	565.08508	65.4011	-481.19189	598.19714	35.563469	-782.83069	554.64081	38.71172	-693.25458	674.05328	43.29702	-657.17731	493.89975	1485.7133	-745.54315	513.96295	1235.2592	-673.50818	324.81259	1436.9288	-796.29529	648.93799	1468.0435	-812.29681	489.4303	1410.8267	-895.99518	633.55664	1390.7673	-699.74878
4959	24.785	404.3605	954.95966	-897.87756	661.57043	959.96442	-882.43481	463.39191	981.36389	-672.78314	585.04608	982.78503	-664.24445	399.60803	716.61841	-999.19672	384.20932	679.6944	-998.24109	428.89426	632.0415	-1007.6334	416.3136	671.255	-1005.5179	488.37915	521.91162	-978.76221	354.33585	529.93024	-972.41827	323.01086	437.52982	-987.89331	320.41534	355.1947	-1007.299	341.04187	369.23834	-1055.4247	335.63516	404.03708	-1035.0923	424.18924	152.67874	-1109.7313	334.9574	140.45222	-1095.8303	380.00415	49.411366	-1053.7635	408.05914	169.42752	-1329.0282	432.53842	128.24313	-1249.8105	315.61478	114.46365	-1241.3312	641.18231	669.72003	-844.52502	625.13068	611.18768	-816.72919	663.58398	597.50378	-770.88593	675.82837	648.21191	-798.34619	527.7038	497.29657	-721.67761	651.65356	514.59338	-685.87335	656.30957	398.56027	-670.90924	643.69	360.74594	-674.90741	631.74518	311.79919	-669.05292	659.14581	322.71365	-623.55652	536.82886	128.19127	-589.54907	619.97626	118.80906	-547.51178	565.14844	66.05452	-474.96808	598.17621	35.402725	-776.79688	554.61462	38.478352	-687.10004	674.07782	43.305927	-651.08618	493.21997	1484.2181	-745.56641	513.42993	1233.8362	-673.64117	324.12012	1435.5044	-796.20227	648.17517	1466.6262	-812.5199	488.65079	1409.3193	-896.16785	632.99011	1389.2842	-699.97876
4960	24.79	403.59125	953.39856	-898.27588	660.78314	958.48578	-882.67249	462.47107	979.77832	-672.83832	584.3717	981.07721	-663.50739	399.37668	714.82849	-997.90088	384.32758	677.86719	-997.32983	429.2149	630.34894	-1007.2583	416.28952	669.42261	-1004.5895	489.2706	520.99237	-977.9812	355.07501	528.53839	-971.90796	323.77997	436.3071	-987.99078	321.23135	354.45221	-1009.1314	341.43427	369.42093	-1057.0759	336.12619	403.95856	-1036.1252	424.93042	154.00606	-1116.1378	336.71408	141.20833	-1101.4833	381.89532	49.379051	-1061.564	406.2243	174.50774	-1334.9269	431.77957	132.03009	-1256.7361	315.1011	117.51714	-1247.2277	640.3219	668.56781	-843.13855	624.11957	610.05988	-815.08978	662.89526	596.63336	-769.2879	674.91418	647.09894	-797.00604	527.31744	496.64703	-719.10773	651.31409	514.065	-683.52448	656.06793	398.07501	-667.6958	643.42157	360.14243	-671.35437	630.72229	310.52069	-664.02313	658.89703	322.69604	-619.69269	536.76434	128.425	-584.02722	619.90924	119.30849	-541.89343	565.09497	66.641792	-469.09995	598.20978	35.175278	-770.73761	554.54333	38.487247	-681.22241	674.09448	43.315102	-644.95654	492.526	1482.7223	-745.62109	512.7677	1232.3773	-673.70416	323.39407	1433.9603	-796.1629	647.42151	1465.1781	-812.75568	487.80972	1407.7737	-896.29944	632.31549	1387.7759	-700.07965
4961	24.795	402.9274	951.82373	-898.75269	659.89673	956.82855	-882.82397	461.35831	978.14813	-673.05048	583.64215	979.34515	-663.57294	398.9711	713.23602	-997.16644	384.41669	676.15869	-996.98236	429.34604	629.14313	-1007.1131	416.22809	668.11029	-1004.3033	490.05627	520.40839	-977.62317	355.61673	527.13965	-971.60046	324.42944	435.09488	-988.15674	322.16364	353.50986	-1010.5077	341.95383	369.23306	-1057.9941	336.66364	403.5668	-1036.8042	425.93625	155.22226	-1121.7313	337.87164	141.47485	-1106.1213	383.99329	49.285366	-1068.4657	404.42648	179.06259	-1340.0261	431.2088	135.39267	-1262.8384	314.53696	120.18016	-1252.2849	639.4433	667.16089	-841.94519	623.18518	608.93738	-813.52338	662.15942	595.58337	-767.75726	674.13995	645.94623	-795.77686	526.97821	496.00952	-716.63782	650.99719	513.49695	-681.35834	655.74292	397.5748	-664.4483	643.1228	359.72681	-667.80048	630.31934	310.11902	-660.14478	658.71918	322.63101	-615.90741	536.5451	128.64513	-578.60376	619.80591	119.88451	-536.28223	564.97748	67.134315	-463.54367	598.31732	35.085003	-764.7428	554.46893	38.536804	-675.34625	674.17029	43.340034	-638.93646	491.89929	1481.2275	-745.66333	512.13568	1230.9988	-673.82544	322.70721	1432.4749	-796.24371	646.64862	1463.7074	-812.92566	486.98328	1406.3162	-896.47937	631.63184	1386.1791	-700.24554
4962	24.8	402.3537	950.34393	-899.27466	659.14734	955.27448	-883.02014	460.32993	976.48608	-673.21594	582.59479	977.51056	-664.56592	398.38861	712.00574	-996.87177	383.79971	674.53131	-996.47925	429.27344	628.19293	-1007.1786	416.00748	667.14063	-1004.2252	490.41315	519.9978	-977.71863	356.02524	525.8678	-971.47754	325.19586	433.78384	-988.31262	323.01425	352.57034	-1011.9012	342.42847	369.24393	-1059.6949	337.11475	403.04272	-1037.4926	426.98746	156.20911	-1126.7114	338.72168	141.67964	-1110.4025	386.2131	49.090561	-1074.5575	402.56631	182.97092	-1344.3635	430.70947	138.2672	-1268.123	314.18893	122.22766	-1256.4537	638.78119	665.93414	-840.94543	622.25403	607.73456	-811.90234	661.69153	594.77008	-766.54254	673.4278	644.66321	-794.66016	526.64734	495.41397	-714.27716	650.71204	512.94135	-679.28577	655.46875	397.04819	-661.36658	642.97693	359.32224	-664.31946	629.88464	309.16791	-655.96094	658.5163	322.47977	-612.2052	536.46948	128.88806	-573.03699	619.71454	120.55769	-530.71906	564.96417	68.003494	-457.3573	598.41138	35.044529	-758.73468	554.45825	38.423012	-669.36627	674.22253	43.37981	-632.78577	491.17313	1479.7495	-745.7179	511.44778	1229.5303	-673.93243	321.9043	1430.9757	-796.23285	645.88605	1462.2423	-813.18097	486.09909	1404.7976	-896.64301	631.02454	1384.6337	-700.42987
